# File created by Blade
# Date/Time:  Mon Sep 22 17:46:01 2014
# Frame Rate: 120.000 fps
#------------------------------------------------------
:FULLY-SPECIFIED
:DEGREES
1275
root 5.757571 37.195778 4.492868 -12.689295 -5.860312 -3.365772
RightUpLeg -28.838115 -22.205910 5.819245
RightLeg 88.297615 -0.000000 -0.000000
RightFoot -0.805469 -25.898585 5.866902
RightToeBase -7.385664 -0.000000 0.000000
LeftUpLeg 20.574533 -1.457077 -5.752593
LeftLeg -3.738196 -0.000000 0.000000
LeftFoot -9.584564 16.361679 -9.676135
LeftToeBase 8.251301 -0.000000 -0.000000
Spine 19.325421 -0.240044 -9.212592
RightShoulder 1.197347 -30.251709 -5.682635
RightArm 20.855875 -22.310578 65.210899
RightForeArm 9.675598 -0.000000 45.774726
RightHand -3.127297 -0.000000 -8.863022
RightHandThumb1 -24.326973 -0.000000 -32.862282
LeftShoulder -18.273938 31.789170 0.308934
LeftArm 55.488160 -16.817459 -75.779687
LeftForeArm 21.365916 0.000000 107.257124
LeftHand -25.521326 -0.000000 15.058571
LeftHandThumb1 -26.253704 0.000000 33.147579
Head 25.391579 1.500449 11.557101
1276
root 5.764915 37.199484 4.513954 -12.807629 -5.910682 -3.362446
RightUpLeg -28.633305 -22.550945 5.728539
RightLeg 88.136978 -0.000000 -0.000000
RightFoot -0.760590 -25.786409 5.703278
RightToeBase -7.485796 -0.000000 0.000000
LeftUpLeg 20.646837 -1.143740 -5.647720
LeftLeg -3.574359 -0.000000 0.000000
LeftFoot -9.652965 15.939964 -9.782919
LeftToeBase 8.322767 -0.000000 -0.000000
Spine 19.405832 -0.216912 -9.201173
RightShoulder 1.213017 -30.273241 -5.681183
RightArm 20.829261 -22.311194 65.230150
RightForeArm 9.588865 -0.000000 45.752760
RightHand -3.185437 -0.000000 -8.650031
RightHandThumb1 -24.326973 -0.000000 -32.862282
LeftShoulder -18.243914 31.776333 0.342446
LeftArm 55.377490 -16.808188 -75.795908
LeftForeArm 21.338663 -0.000000 107.299129
LeftHand -25.461441 -0.000000 15.083406
LeftHandThumb1 -26.253704 0.000000 33.147579
Head 25.456959 1.532083 11.594706
1277
root 5.762016 37.200664 4.530632 -12.884038 -5.976213 -3.415452
RightUpLeg -28.479962 -22.792675 5.760206
RightLeg 87.970314 -0.000000 -0.000000
RightFoot -0.790291 -25.778122 5.655445
RightToeBase -7.535365 -0.000000 0.000000
LeftUpLeg 20.734242 -0.962564 -5.520949
LeftLeg -3.515841 -0.000000 0.000000
LeftFoot -9.711692 15.684434 -9.853822
LeftToeBase 8.281409 -0.000000 -0.000000
Spine 19.447516 -0.195502 -9.138663
RightShoulder 1.228742 -30.294273 -5.678445
RightArm 20.800726 -22.355064 65.235567
RightForeArm 9.659161 0.000000 45.747680
RightHand -3.234345 0.000000 -8.460453
RightHandThumb1 -24.326973 -0.000000 -32.862282
LeftShoulder -18.215802 31.798884 0.368963
LeftArm 55.295952 -16.826317 -75.798243
LeftForeArm 21.336313 0.000000 107.352819
LeftHand -25.443645 -0.000000 15.111355
LeftHandThumb1 -26.253704 0.000000 33.147579
Head 25.504617 1.563535 11.635078
1278
root 5.756432 37.199345 4.544123 -12.916019 -6.072316 -3.473346
RightUpLeg -28.408205 -23.018191 5.852134
RightLeg 87.800189 -0.000000 -0.000000
RightFoot -0.747554 -25.877697 5.535408
RightToeBase -7.581379 -0.000000 0.000000
LeftUpLeg 20.800784 -0.835782 -5.409922
LeftLeg -3.513295 -0.000000 0.000000
LeftFoot -9.756932 15.543666 -9.872227
LeftToeBase 8.283006 -0.000000 -0.000000
Spine 19.435916 -0.163809 -9.072385
RightShoulder 1.239204 -30.326668 -5.668666
RightArm 20.799004 -22.409891 65.221833
RightForeArm 9.725314 0.000000 45.717315
RightHand -3.182419 -0.000000 -8.572504
RightHandThumb1 -24.326973 -0.000000 -32.862282
LeftShoulder -18.224029 31.857718 0.362123
LeftArm 55.257773 -16.855987 -75.791552
LeftForeArm 21.276540 -0.000000 107.410377
LeftHand -25.466368 -0.000000 15.105974
LeftHandThumb1 -26.253704 0.000000 33.147579
Head 25.535454 1.605084 11.682937
1279
root 5.748783 37.196223 4.553097 -12.892424 -6.210261 -3.509544
RightUpLeg -28.425479 -23.159564 5.977956
RightLeg 87.644626 -0.000000 -0.000000
RightFoot -0.799022 -25.944634 5.565675
RightToeBase -7.546764 -0.000000 0.000000
LeftUpLeg 20.812954 -0.718083 -5.329086
LeftLeg -3.530318 -0.000000 0.000000
LeftFoot -9.800832 15.482771 -9.874499
LeftToeBase 8.295554 -0.000000 -0.000000
Spine 19.355613 -0.108260 -9.042982
RightShoulder 1.245153 -30.351977 -5.631923
RightArm 20.803643 -22.469304 65.189860
RightForeArm 9.699901 0.000000 45.682969
RightHand -3.210432 -0.000000 -8.342439
RightHandThumb1 -24.326973 -0.000000 -32.862282
LeftShoulder -18.275523 31.913780 0.338505
LeftArm 55.225992 -16.888065 -75.759043
LeftForeArm 21.224680 0.000000 107.460074
LeftHand -25.385837 -0.000000 15.145276
LeftHandThumb1 -26.253704 0.000000 33.147579
Head 25.552203 1.654153 11.757621
1280
root 5.743106 37.190790 4.554343 -12.823580 -6.381218 -3.516991
RightUpLeg -28.528303 -23.267184 6.129018
RightLeg 87.487368 -0.000000 -0.000000
RightFoot -0.785249 -26.065035 5.532653
RightToeBase -7.681578 -0.000000 0.000000
LeftUpLeg 20.762066 -0.612379 -5.298369
LeftLeg -3.542059 -0.000000 0.000000
LeftFoot -9.853498 15.528207 -9.841129
LeftToeBase 8.328403 -0.000000 -0.000000
Spine 19.235035 -0.024294 -9.034061
RightShoulder 1.228058 -30.401695 -5.596632
RightArm 20.864537 -22.568763 65.127112
RightForeArm 9.768826 -0.000000 45.643422
RightHand -3.208127 -0.000000 -8.425181
RightHandThumb1 -24.326973 -0.000000 -32.862282
LeftShoulder -18.350160 31.987384 0.278900
LeftArm 55.242722 -16.944049 -75.724395
LeftForeArm 21.153209 -0.000000 107.512835
LeftHand -25.363332 0.000000 15.153342
LeftHandThumb1 -26.253704 0.000000 33.147579
Head 25.532692 1.720655 11.826237
